<svg width="323" height="518" viewBox="0 0 323 518" fill="none" xmlns="http://www.w3.org/2000/svg">
<g clip-path="url(#clip0_2575_55452)">
<path d="M81.875 323.076V323.072C81.875 266.643 127.567 220.897 183.931 220.897H183.935C240.299 220.897 285.991 266.643 285.991 323.072V323.076C285.991 379.506 240.299 425.251 183.935 425.251H183.931C127.567 425.251 81.875 379.506 81.875 323.076Z" fill="#121212"/>
<path d="M185.803 427.256V355.824H179.524V427.256C179.524 446.022 164.273 461.287 145.529 461.287H74.8708C60.4926 461.287 46.9695 466.895 36.8058 477.074C26.6352 487.253 21.0364 500.789 21.0364 515.187C21.0364 516.129 21.057 517.068 21.1051 518H27.3943C27.3359 517.072 27.3119 516.133 27.3119 515.187C27.3119 488.935 48.6458 467.576 74.8674 467.576H145.526C156.284 467.576 166.399 463.381 174.007 455.767C181.616 448.15 185.799 438.026 185.799 427.256H185.803Z" fill="#96C234"/>
<path d="M322.5 155.364C322.5 142.939 317.829 131.24 309.317 122.268C309.029 121.966 308.73 121.663 308.431 121.36C299.359 112.275 287.296 107.275 274.467 107.275H65.429C55.1828 107.275 45.8538 103.279 38.9085 96.7624C31.3449 89.668 26.6152 79.5819 26.6152 68.416V31.7441H20.3362V68.416C20.3362 80.476 25.0248 91.8104 33.5432 100.335C33.8421 100.635 34.1443 100.934 34.4535 101.223C42.8586 109.19 53.8054 113.558 65.4255 113.558H274.467C286.431 113.558 297.233 118.62 304.855 126.722C311.9 134.208 316.225 144.291 316.225 155.364C316.225 178.414 297.491 197.17 274.467 197.17H211.568C193.958 197.17 179.624 211.513 179.624 229.151V290.325H185.903V229.151C185.903 214.983 197.417 203.456 211.568 203.456H274.467C287.296 203.456 299.359 198.456 308.431 189.37C317.506 180.282 322.5 168.208 322.5 155.364Z" fill="#96C234"/>
<path d="M181.214 337.278C179.67 337.278 178.418 336.025 178.418 334.479C178.418 332.933 179.67 331.68 181.214 331.68C182.758 331.68 184.01 332.933 184.01 334.479C184.01 336.025 182.758 337.278 181.214 337.278Z" fill="#96C234"/>
<path d="M175.729 306.749C174.185 306.749 172.933 305.496 172.933 303.95C172.933 302.404 174.185 301.15 175.729 301.15C177.274 301.15 178.525 302.404 178.525 303.95C178.525 305.496 177.274 306.749 175.729 306.749Z" fill="#96C234"/>
<path d="M200.683 319.857C199.647 319.857 198.808 319.016 198.808 317.979C198.808 316.942 199.647 316.102 200.683 316.102C201.719 316.102 202.559 316.942 202.559 317.979C202.559 319.016 201.719 319.857 200.683 319.857Z" fill="#96C234"/>
<path d="M186.006 314.279C184.113 314.279 182.575 315.82 182.575 317.715C182.575 319.61 184.113 321.15 186.006 321.15C187.899 321.15 189.438 319.61 189.438 317.715C189.438 315.82 187.899 314.279 186.006 314.279ZM186.006 320.029C184.732 320.029 183.694 318.991 183.694 317.715C183.694 316.439 184.732 315.4 186.006 315.4C187.28 315.4 188.318 316.439 188.318 317.715C188.318 318.991 187.28 320.029 186.006 320.029Z" fill="#96C234"/>
<path d="M170.311 341.433C168.206 341.433 166.492 343.149 166.492 345.257C166.492 347.365 168.206 349.081 170.311 349.081C172.417 349.081 174.131 347.365 174.131 345.257C174.131 343.149 172.417 341.433 170.311 341.433ZM170.311 347.832C168.893 347.832 167.739 346.677 167.739 345.257C167.739 343.836 168.893 342.681 170.311 342.681C171.73 342.681 172.884 343.836 172.884 345.257C172.884 346.677 171.73 347.832 170.311 347.832Z" fill="#96C234"/>
<path d="M198.288 343.568H197.271V341.371H198.288V343.568Z" fill="#96C234"/>
<path d="M198.288 339.194H197.271V336.997H198.288V339.194Z" fill="#96C234"/>
<path d="M201.064 339.775V340.793H198.87V339.775H201.064Z" fill="#96C234"/>
<path d="M196.695 339.775V340.793H194.5V339.775H196.695Z" fill="#96C234"/>
<path d="M165.462 321.277H164.428V319.046H165.462V321.277Z" fill="#96C234"/>
<path d="M165.462 316.831H164.428V314.599H165.462V316.831Z" fill="#96C234"/>
<path d="M168.279 317.423V318.458H166.05V317.423H168.279Z" fill="#96C234"/>
<path d="M163.838 317.419V318.454H161.609V317.419H163.838Z" fill="#96C234"/>
<path d="M193.95 306.223H192.748V303.623H193.95V306.223Z" fill="#96C234"/>
<path d="M193.95 301.043H192.748V298.443H193.95V301.043Z" fill="#96C234"/>
<path d="M197.238 301.731V302.935H194.642V301.731H197.238Z" fill="#96C234"/>
<path d="M192.064 301.731V302.935H189.468V301.731H192.064Z" fill="#96C234"/>
<path d="M16.5811 51.3145H30.0801V58.0202H16.5811V51.3145Z" fill="#96C234"/>
<path d="M32.2388 0C33.7742 0 35.0176 1.24486 35.0176 2.78203V18.8105H29.46V2.78203C29.46 1.24486 30.7034 0 32.2388 0Z" fill="#555555"/>
<path d="M14.4243 0.0175781C15.9597 0.0175781 17.2031 1.26244 17.2031 2.7996V18.8281H11.6455V2.7996C11.6455 1.26244 12.889 0.0175781 14.4243 0.0175781Z" fill="#555555"/>
<path d="M40.668 28.1709H5.99316V39.2681C5.99316 45.9222 11.3893 51.3246 18.0357 51.3246H28.6254C35.2718 51.3246 40.668 45.9222 40.668 39.2681V28.1709Z" fill="#96C234"/>
<path d="M3.488 18.7861H43.1811C44.8296 18.7861 46.166 20.1241 46.166 21.7745V25.1858C46.166 26.8362 44.8296 28.1742 43.1811 28.1742H3.488C1.8395 28.1742 0.50312 26.8362 0.50312 25.1858V21.7745C0.50312 20.1241 1.8395 18.7861 3.488 18.7861Z" fill="#96C234"/>
<path d="M18.6802 64.6162H28.3184V66.5592H18.6802V64.6162Z" fill="#96C234"/>
<path d="M18.6802 61.2422H28.3184V63.1851H18.6802V61.2422Z" fill="#96C234"/>
<path d="M18.6802 57.8691H28.3184V59.8121H18.6802V57.8691Z" fill="#96C234"/>
<path d="M16.916 18.7861H3.65061C1.91601 18.7861 0.504293 20.1961 0.504293 21.9361V25.0242C0.504293 26.7608 1.91257 28.1742 3.65061 28.1742H16.916V18.7861Z" fill="#6D8A2B"/>
<path d="M8.88701 28.1748H21.4414V48.1063H15.1762C12.4249 48.1063 8.88701 44.6228 8.88701 41.7858V28.1782V28.1748Z" fill="#6D8A2B"/>
<path d="M16.5814 51.3145H21.3867V58.0202H16.5814V51.3145Z" fill="#6D8A2B"/>
<path d="M18.6805 64.6162H23.4824V66.5592H18.6805V64.6162Z" fill="#6D8A2B"/>
<path d="M18.6805 61.2422H23.4824V63.1851H18.6805V61.2422Z" fill="#6D8A2B"/>
<path d="M18.6805 57.8691H23.4824V59.8121H18.6805V57.8691Z" fill="#6D8A2B"/>
</g>
<defs>
<clipPath id="clip0_2575_55452">
<rect width="322" height="518" fill="white" transform="matrix(-1 0 0 1 322.5 0)"/>
</clipPath>
</defs>
</svg>
