<svg width="494" height="483" viewBox="0 0 494 483" fill="none" xmlns="http://www.w3.org/2000/svg">
<g clip-path="url(#clip0_1952_21507)">
<path d="M418.163 103.783C415.921 103.783 414.099 101.958 414.099 99.7135C414.099 97.4689 415.921 95.6445 418.163 95.6445C420.404 95.6445 422.227 97.4689 422.227 99.7135C422.227 101.958 420.404 103.783 418.163 103.783ZM418.163 97.8226C417.12 97.8226 416.271 98.6735 416.271 99.717C416.271 100.761 417.12 101.611 418.163 101.611C419.205 101.611 420.055 100.761 420.055 99.717C420.055 98.6735 419.205 97.8226 418.163 97.8226Z" fill="#DEDEDE"/>
<path d="M340.825 219.049C340.699 218.836 340.496 218.682 340.255 218.618C340.013 218.555 339.762 218.59 339.548 218.72L336.453 220.551L334.624 217.452C334.498 217.239 334.295 217.085 334.054 217.022C333.813 216.959 333.561 216.994 333.347 217.123C333.134 217.249 332.98 217.452 332.917 217.694C332.854 217.936 332.889 218.188 333.019 218.401L334.848 221.5L331.753 223.332C331.539 223.458 331.385 223.661 331.322 223.903C331.26 224.144 331.294 224.396 331.424 224.61C331.55 224.824 331.753 224.978 331.994 225.041C332.235 225.104 332.487 225.069 332.7 224.939L335.796 223.108L337.625 226.207C337.831 226.557 338.233 226.721 338.611 226.648C338.712 226.627 338.81 226.592 338.905 226.536C339.349 226.273 339.496 225.699 339.234 225.258L337.404 222.159L340.5 220.327C340.944 220.065 341.091 219.49 340.828 219.049H340.825Z" fill="#DEDEDE"/>
<path d="M348.672 239.566C346.431 239.566 344.608 237.741 344.608 235.497C344.608 233.252 346.431 231.428 348.672 231.428C350.914 231.428 352.736 233.252 352.736 235.497C352.736 237.741 350.914 239.566 348.672 239.566ZM348.672 233.606C347.63 233.606 346.78 234.457 346.78 235.5C346.78 236.544 347.63 237.395 348.672 237.395C349.715 237.395 350.564 236.544 350.564 235.5C350.564 234.457 349.715 233.606 348.672 233.606Z" fill="#DEDEDE"/>
<path d="M475.768 368.418C475.544 368.526 475.376 368.719 475.296 368.953C475.215 369.188 475.229 369.444 475.338 369.668L476.911 372.903L473.68 374.479C473.456 374.588 473.288 374.777 473.208 375.015C473.127 375.25 473.141 375.505 473.25 375.729C473.358 375.953 473.547 376.121 473.785 376.202C474.019 376.283 474.274 376.269 474.498 376.16L477.73 374.584L479.304 377.82C479.412 378.044 479.604 378.212 479.839 378.293C480.073 378.373 480.328 378.359 480.552 378.25C480.776 378.142 480.944 377.953 481.024 377.715C481.105 377.48 481.091 377.224 480.982 377L479.409 373.765L482.64 372.189C483.004 372.01 483.203 371.625 483.158 371.24C483.147 371.139 483.116 371.037 483.07 370.939C482.846 370.477 482.287 370.284 481.822 370.508L478.59 372.084L477.016 368.848C476.792 368.386 476.233 368.194 475.768 368.418Z" fill="#DEDEDE"/>
<path d="M391.299 448.278C389.057 448.278 387.235 446.453 387.235 444.209C387.235 441.964 389.057 440.14 391.299 440.14C393.541 440.14 395.363 441.964 395.363 444.209C395.363 446.453 393.541 448.278 391.299 448.278ZM391.299 442.318C390.257 442.318 389.407 443.169 389.407 444.212C389.407 445.256 390.257 446.107 391.299 446.107C392.342 446.107 393.191 445.256 393.191 444.212C393.191 443.169 392.342 442.318 391.299 442.318Z" fill="#DEDEDE"/>
<path d="M0.65747 416.283C0.472108 416.451 0.363689 416.679 0.349699 416.927C0.33571 417.176 0.419647 417.418 0.587522 417.603L2.98673 420.282L0.311228 422.684C0.125866 422.852 0.0174467 423.08 0.00345715 423.328C-0.0105324 423.577 0.073405 423.815 0.24128 424.004C0.409155 424.19 0.636486 424.298 0.884801 424.312C1.13312 424.327 1.37094 424.242 1.5598 424.074L4.2353 421.672L6.63452 424.351C6.80239 424.537 7.02972 424.645 7.27804 424.659C7.52635 424.673 7.76418 424.589 7.95304 424.421C8.1384 424.253 8.24682 424.025 8.26081 423.777C8.2748 423.528 8.19086 423.286 8.02298 423.101L5.62377 420.422L8.29928 418.02C8.60005 417.75 8.68399 417.323 8.5371 416.966C8.49863 416.871 8.44267 416.78 8.36923 416.7C8.02648 416.318 7.43542 416.283 7.05071 416.63L4.3752 419.032L1.97599 416.353C1.63324 415.971 1.04218 415.936 0.65747 416.28V416.283Z" fill="#DEDEDE"/>
<path d="M79.7612 482.5C77.5194 482.5 75.6973 480.676 75.6973 478.431C75.6973 476.187 77.5194 474.362 79.7612 474.362C82.0031 474.362 83.8252 476.187 83.8252 478.431C83.8252 480.676 82.0031 482.5 79.7612 482.5ZM79.7612 476.54C78.719 476.54 77.8691 477.391 77.8691 478.435C77.8691 479.478 78.719 480.329 79.7612 480.329C80.8035 480.329 81.6533 479.478 81.6533 478.435C81.6533 477.391 80.8035 476.54 79.7612 476.54Z" fill="#DEDEDE"/>
<path d="M6.21145 169.626C6.02959 169.797 5.92467 170.028 5.91767 170.277C5.91068 170.526 5.99811 170.764 6.16949 170.946L8.62815 173.572L6.00511 176.034C5.82324 176.205 5.71832 176.437 5.71133 176.685C5.70433 176.934 5.79177 177.172 5.96314 177.354C6.13451 177.536 6.36534 177.641 6.61365 177.648C6.86197 177.655 7.09979 177.568 7.28166 177.396L9.9047 174.934L12.3634 177.561C12.5347 177.743 12.7656 177.848 13.0139 177.855C13.2622 177.862 13.5 177.774 13.6819 177.603C13.8638 177.431 13.9687 177.2 13.9757 176.951C13.9827 176.703 13.8952 176.465 13.7239 176.282L11.2652 173.656L13.8882 171.194C14.1855 170.918 14.259 170.487 14.1016 170.137C14.0596 170.042 14.0037 169.955 13.9302 169.874C13.577 169.5 12.9859 169.479 12.6117 169.832L9.98864 172.294L7.52997 169.668C7.17674 169.293 6.58568 169.272 6.21145 169.626Z" fill="#DEDEDE"/>
<path d="M33.3755 198.025C31.1337 198.025 29.3115 196.2 29.3115 193.956C29.3115 191.711 31.1337 189.887 33.3755 189.887C35.6173 189.887 37.4395 191.711 37.4395 193.956C37.4395 196.2 35.6173 198.025 33.3755 198.025ZM33.3755 192.065C32.3333 192.065 31.4834 192.916 31.4834 193.959C31.4834 195.003 32.3333 195.854 33.3755 195.854C34.4177 195.854 35.2676 195.003 35.2676 193.959C35.2676 192.916 34.4177 192.065 33.3755 192.065Z" fill="#DEDEDE"/>
<path d="M487.806 203.782C487.558 203.817 487.341 203.946 487.19 204.146C487.04 204.346 486.977 204.591 487.015 204.839L487.53 208.4L483.973 208.915C483.724 208.95 483.508 209.08 483.361 209.279C483.21 209.479 483.147 209.724 483.186 209.973C483.221 210.221 483.35 210.438 483.55 210.589C483.749 210.74 483.994 210.803 484.242 210.764L487.799 210.249L488.313 213.814C488.348 214.063 488.477 214.28 488.677 214.43C488.876 214.581 489.121 214.644 489.369 214.606C489.618 214.57 489.834 214.441 489.981 214.241C490.132 214.042 490.195 213.797 490.156 213.548L489.642 209.983L493.202 209.469C493.605 209.409 493.909 209.101 493.986 208.726C494.007 208.625 494.01 208.52 493.993 208.411C493.919 207.9 493.447 207.546 492.937 207.62L489.38 208.134L488.866 204.57C488.792 204.058 488.32 203.705 487.809 203.778L487.806 203.782Z" fill="#DEDEDE"/>
<path d="M198.97 39.2041C198.722 39.1761 198.48 39.2496 198.285 39.4072C198.092 39.5648 197.97 39.7854 197.942 40.034L197.561 43.6127L193.986 43.2311C193.738 43.203 193.497 43.2766 193.301 43.4342C193.108 43.5917 192.986 43.8123 192.958 44.061C192.93 44.3096 193.003 44.5512 193.161 44.7473C193.318 44.9399 193.539 45.0624 193.787 45.0905L197.361 45.4721L196.98 49.0509C196.952 49.2995 197.025 49.5411 197.183 49.7372C197.34 49.9333 197.561 50.0524 197.809 50.0804C198.057 50.1084 198.299 50.0349 198.494 49.8773C198.687 49.7197 198.809 49.4991 198.837 49.2505L199.218 45.6717L202.793 46.0534C203.195 46.0955 203.569 45.8748 203.733 45.5247C203.779 45.4336 203.807 45.3286 203.817 45.2235C203.873 44.7123 203.499 44.2501 202.989 44.1975L199.414 43.8158L199.795 40.2371C199.851 39.7258 199.477 39.2636 198.967 39.2111L198.97 39.2041Z" fill="#DEDEDE"/>
<path d="M396.979 0.5C387.659 0.5 380.101 8.0637 380.101 17.3958V173.502C380.101 185.748 370.182 195.678 357.952 195.678H247.948V21.4507C247.948 9.88108 257.318 0.5 268.873 0.5H396.979Z" fill="#F2F2F2"/>
<path d="M357.951 195.678H302.049V101.633C302.049 92.3006 309.607 84.7334 318.927 84.7334C323.589 84.7334 327.807 86.6243 330.86 89.6813C333.914 92.7383 335.802 96.9649 335.802 101.629V173.498C335.802 185.747 345.717 195.678 357.951 195.678Z" fill="#DEDEDE"/>
<path d="M318.924 84.7334C309.603 84.7334 302.045 92.3006 302.045 101.633V416.261C302.045 422.046 299.702 427.285 295.918 431.077C292.134 434.869 286.902 437.212 281.12 437.212H118.719C107.163 437.212 97.7939 427.835 97.7939 416.261V105.684C97.7939 94.1145 107.163 84.7334 118.719 84.7334H318.924Z" fill="#F2F2F2"/>
<path d="M281.121 437.212H71.3575C59.8021 437.212 50.4326 427.831 50.4326 416.261V403.417H260.196V416.261C260.196 427.834 269.562 437.212 281.121 437.212Z" fill="#DEDEDE"/>
<path d="M150.294 280.896V272.737H128.298C125.521 272.737 123.441 272.107 122.056 270.85C120.667 269.593 119.975 267.881 119.975 265.717C119.975 265.16 120.076 264.6 120.282 264.029C120.485 263.458 120.793 262.859 121.202 262.229C121.611 261.602 122.035 260.993 122.472 260.408C122.909 259.823 123.451 259.105 124.095 258.258L147.317 227.156C148.835 225.107 150.084 223.622 151.063 222.702C152.042 221.781 153.217 221.318 154.592 221.318C159.03 221.318 161.251 223.864 161.251 228.952V262.908H163.136C165.385 262.908 167.189 263.216 168.546 263.829C169.903 264.442 170.585 265.79 170.585 267.867C170.585 269.561 170.029 270.798 168.921 271.575C167.808 272.349 166.144 272.737 163.926 272.737H161.254V280.896C161.254 283.148 160.758 284.822 159.764 285.918C158.771 287.014 157.442 287.564 155.777 287.564C154.113 287.564 152.819 287 151.811 285.876C150.804 284.752 150.301 283.089 150.301 280.896H150.294ZM131.453 262.912H150.294V237.423L131.453 262.912Z" fill="#94D42A"/>
<path d="M221.273 254.928C221.273 259.725 220.979 263.846 220.395 267.299C219.811 270.752 218.73 273.879 217.153 276.687C215.166 280.14 212.596 282.801 209.441 284.671C206.287 286.541 202.782 287.48 198.925 287.48C194.483 287.48 190.503 286.222 186.984 283.708C183.463 281.194 180.812 277.713 179.031 273.266C178.126 270.839 177.461 268.154 177.038 265.216C176.615 262.278 176.401 259.095 176.401 255.674C176.401 251.258 176.636 247.28 177.101 243.74C177.566 240.203 178.297 237.16 179.29 234.614C181.014 230.402 183.519 227.194 186.806 224.985C190.094 222.775 194.014 221.672 198.571 221.672C201.579 221.672 204.311 222.162 206.766 223.143C209.221 224.123 211.372 225.555 213.229 227.443C215.083 229.33 216.653 231.662 217.94 234.439C220.161 239.264 221.269 246.093 221.269 254.928H221.273ZM209.27 254.049C209.27 248.698 208.948 244.317 208.305 240.91C207.661 237.503 206.58 234.929 205.063 233.189C203.545 231.449 201.439 230.58 198.753 230.58C194.899 230.58 192.217 232.527 190.713 236.414C189.209 240.304 188.457 246.299 188.457 254.402C188.457 259.9 188.779 264.403 189.422 267.915C190.066 271.424 191.146 274.078 192.664 275.878C194.182 277.678 196.242 278.575 198.841 278.575C201.439 278.575 203.632 277.64 205.15 275.766C206.668 273.896 207.735 271.218 208.35 267.737C208.962 264.256 209.27 259.693 209.27 254.049Z" fill="#94D42A"/>
<path d="M256.94 280.896V272.737H234.945C232.168 272.737 230.087 272.107 228.702 270.85C227.314 269.593 226.621 267.881 226.621 265.717C226.621 265.16 226.723 264.6 226.929 264.029C227.132 263.458 227.439 262.859 227.849 262.229C228.258 261.602 228.681 260.993 229.118 260.408C229.555 259.823 230.098 259.105 230.741 258.258L253.964 227.156C255.482 225.107 256.73 223.622 257.709 222.702C258.689 221.781 259.864 221.318 261.235 221.318C265.673 221.318 267.894 223.864 267.894 228.952V262.908H269.779C272.028 262.908 273.832 263.216 275.189 263.829C276.546 264.442 277.228 265.79 277.228 267.867C277.228 269.561 276.672 270.798 275.564 271.575C274.451 272.349 272.787 272.737 270.569 272.737H267.897V280.896C267.897 283.148 267.401 284.822 266.407 285.918C265.414 287.014 264.085 287.564 262.42 287.564C260.756 287.564 259.462 287 258.454 285.876C257.447 284.752 256.944 283.089 256.944 280.896H256.94ZM238.1 262.912H256.94V237.423L238.1 262.912Z" fill="#94D42A"/>
<path d="M247.948 85.3467H318.924" stroke="#DEDEDE" stroke-width="5" stroke-miterlimit="10"/>
<path d="M396.538 396.607C393.429 399.72 388.389 399.72 385.284 396.607L336.964 348.227L330.822 342.078C335.292 339.123 339.125 335.285 342.077 330.81L396.538 385.338C399.648 388.451 399.648 393.494 396.538 396.607Z" fill="#9C9C9C"/>
<path d="M344.525 333.257L357.116 345.866C354.167 350.342 350.334 354.18 345.865 357.135L339.412 350.674L333.271 344.525C337.74 341.57 341.573 337.732 344.525 333.257Z" fill="#5E5E5E"/>
<path d="M357.07 307.005C356.986 304.963 356.773 302.957 356.437 300.989C354.545 289.804 348.795 279.933 340.605 272.803C332.176 265.46 321.166 261.017 309.114 261.017C282.604 261.017 261.112 282.535 261.112 309.078C261.112 310.916 261.217 312.73 261.417 314.512C262.046 320.104 263.63 325.406 266.009 330.245C269.422 337.207 274.472 343.216 280.652 347.779C281.656 348.521 282.691 349.225 283.754 349.887C291.113 354.481 299.804 357.135 309.114 357.135C319.494 357.135 329.109 353.836 336.96 348.227C341.308 345.124 345.113 341.311 348.215 336.962C351.331 332.588 353.734 327.672 355.252 322.381C356.462 318.158 357.112 313.696 357.112 309.081C357.112 308.388 357.098 307.694 357.067 307.008L357.07 307.005ZM309.118 348.584C300.482 348.584 292.498 345.807 286 341.097C279.694 336.528 274.791 330.133 272.059 322.685C270.506 318.441 269.656 313.857 269.656 309.074C269.656 307.274 269.775 305.502 270.01 303.769C271.972 289.118 281.957 277.009 295.394 272.019C299.668 270.433 304.291 269.564 309.118 269.564C310.863 269.564 312.58 269.676 314.266 269.9C322.264 270.94 329.514 274.386 335.264 279.485C343.43 286.723 348.579 297.298 348.579 309.078C348.579 309.68 348.565 310.279 348.537 310.874C348.407 313.773 347.967 316.592 347.246 319.299C346.141 323.445 344.378 327.322 342.08 330.813C339.129 335.288 335.296 339.129 330.826 342.081C329.728 342.806 328.595 343.475 327.423 344.091C324.926 345.404 322.268 346.455 319.487 347.211C316.182 348.111 312.706 348.591 309.118 348.591V348.584Z" fill="#B8B8B8"/>
<path d="M279.232 313.42C277.197 313.42 275.546 311.767 275.546 309.729C275.546 300.576 279.106 291.972 285.569 285.501C292.033 279.03 300.626 275.465 309.768 275.465C311.803 275.465 313.454 277.118 313.454 279.156C313.454 281.194 311.803 282.846 309.768 282.846C302.595 282.846 295.852 285.644 290.781 290.722C285.709 295.799 282.915 302.551 282.915 309.733C282.915 311.771 281.264 313.423 279.229 313.423L279.232 313.42Z" fill="white"/>
</g>
<defs>
<clipPath id="clip0_1952_21507">
<rect width="494" height="482" fill="white" transform="translate(0 0.5)"/>
</clipPath>
</defs>
</svg>
