<svg width="106" height="37" viewBox="0 0 106 37" fill="none" xmlns="http://www.w3.org/2000/svg">
<g clip-path="url(#clip0_4499_8250)">
<path d="M36.0276 26.2217V14.507C36.0276 14.2244 36.2606 13.9951 36.5479 13.9951H39.7449C40.0322 13.9951 40.2652 14.2244 40.2652 14.507V17.951C40.2652 18.2337 40.4982 18.4629 40.7855 18.4629H43.3249C43.6122 18.4629 43.8452 18.2337 43.8452 17.951V14.507C43.8452 14.2244 44.0782 13.9951 44.3655 13.9951H47.5625C47.8498 13.9951 48.0828 14.2244 48.0828 14.507V26.2217C48.0828 26.5043 47.8498 26.7335 47.5625 26.7335H44.3655C44.0782 26.7335 43.8452 26.5043 43.8452 26.2217V22.9409C43.8452 22.6583 43.6122 22.429 43.3249 22.429H40.7855C40.4982 22.429 40.2652 22.6583 40.2652 22.9409V26.2217C40.2652 26.5043 40.0322 26.7335 39.7449 26.7335H36.5479C36.2606 26.7335 36.0276 26.5043 36.0276 26.2217Z" fill="white"/>
<path d="M61.5425 26.7335H58.4429V26.0388C57.6481 26.6754 56.5891 26.9942 55.2643 26.9942C53.4687 26.9942 51.9684 26.3575 50.7027 25.0833C49.4666 23.8092 48.8489 22.2752 48.8489 20.5088C48.8489 18.7424 49.4961 17.1503 50.7618 15.906C52.057 14.6318 53.6164 13.9951 55.4407 13.9951C57.265 13.9951 58.8547 14.6318 60.1204 15.906C61.4157 17.1511 62.0629 18.6851 62.0629 20.5088V26.2217C62.0629 26.5043 61.8298 26.7335 61.5425 26.7335ZM55.4407 17.5852C53.8223 17.5852 52.4975 18.8876 52.4975 20.5096C52.4975 22.1315 53.8215 23.4049 55.4407 23.4049C57.0599 23.4049 58.3839 22.1025 58.3839 20.5096C58.3839 18.9167 57.0887 17.5852 55.4407 17.5852Z" fill="white"/>
<path d="M74.3345 19.4961V26.2217C74.3345 26.5043 74.1015 26.7335 73.8142 26.7335H71.0881C70.8008 26.7335 70.5677 26.5043 70.5677 26.2217V19.4961C70.5677 18.1355 70.0083 17.4408 68.8607 17.4408C67.7131 17.4408 67.1242 18.2227 67.1242 19.4961V26.2217C67.1242 26.5043 66.8912 26.7335 66.6039 26.7335H63.8777C63.5905 26.7335 63.3574 26.5043 63.3574 26.2217V19.4961C63.3574 17.7587 63.8873 16.3982 64.9463 15.4428C66.0061 14.4874 67.3006 13.9951 68.8607 13.9951C70.3028 13.9951 71.4799 14.4002 72.4511 15.2112C73.4223 14.4002 74.629 13.9951 76.071 13.9951C77.6304 13.9951 78.9256 14.4874 79.9559 15.4428C81.0157 16.3982 81.5448 17.7587 81.5448 19.4961V26.2217C81.5448 26.5043 81.3118 26.7335 81.0245 26.7335H78.2984C78.0111 26.7335 77.778 26.5043 77.778 26.2217V19.4961C77.778 18.1355 77.2186 17.4408 76.071 17.4408C74.9235 17.4408 74.3345 18.1936 74.3345 19.4961Z" fill="white"/>
<path d="M83.3003 14.2559H90.3486C91.5976 14.2559 92.6454 15.2395 92.639 16.4682C92.6358 17.042 92.4299 17.5594 92.0213 18.0485L88.1476 22.4417C87.8556 22.773 88.095 23.2888 88.5403 23.2888H92.0006C92.2879 23.2888 92.5209 23.518 92.5209 23.8007V26.2226C92.5209 26.5052 92.2879 26.7344 92.0006 26.7344H84.6043C83.2804 26.7344 82.3379 25.779 82.3379 24.4766C82.3379 23.9553 82.5438 23.434 82.9851 22.9418L86.8349 18.5478C87.1253 18.2157 86.8859 17.7015 86.4406 17.7015H83.2987C83.0114 17.7015 82.7784 17.4723 82.7784 17.1896V14.7677C82.7784 14.4851 83.0114 14.2559 83.2987 14.2559H83.3003Z" fill="white"/>
<path d="M105.48 26.7335H102.38V26.0388C101.585 26.6754 100.526 26.9942 99.2014 26.9942C97.4058 26.9942 95.9054 26.3575 94.6397 25.0833C93.4036 23.8092 92.7859 22.2752 92.7859 20.5088C92.7859 18.7424 93.4331 17.1503 94.6988 15.906C95.994 14.6318 97.5534 13.9951 99.3777 13.9951C101.202 13.9951 102.792 14.6318 104.057 15.906C105.353 17.1511 106 18.6851 106 20.5088V26.2217C106 26.5043 105.767 26.7335 105.48 26.7335ZM99.3777 17.5852C97.7593 17.5852 96.4345 18.8876 96.4345 20.5096C96.4345 22.1315 97.7585 23.4049 99.3777 23.4049C100.997 23.4049 102.321 22.1025 102.321 20.5096C102.321 18.9167 101.026 17.5852 99.3777 17.5852Z" fill="white"/>
<path d="M24.6603 22.4999C24.9141 21.3561 25.0011 20.2271 24.535 19.1689C23.0834 15.8748 18.5569 16.4259 15.9513 17.8241C14.1142 18.8101 12.5277 20.3316 11.3561 22.0273C10.1527 23.7693 9.27565 25.761 7.53113 27.076C7.31167 27.2417 7.05789 27.3908 6.78177 27.3853C6.36998 27.3767 6.03799 27.0109 5.93664 26.6175C5.83529 26.2242 5.9127 25.8113 5.9941 25.4141C7.68754 17.1678 11.2428 9.2975 16.3295 2.53419C16.64 2.12124 16.9648 1.69417 17.0685 1.19016C17.4516 -0.669655 15.0758 0.105202 14.1541 0.514219C12.7894 1.1195 11.6219 2.15736 10.5844 3.19835C5.69483 8.10577 3.18658 14.8055 1.17871 21.3875C0.408598 23.9122 -0.315227 26.5571 0.14285 29.1549C0.600128 31.7526 2.58326 34.2798 5.25192 34.5239C7.69951 34.7484 9.92765 33.0488 11.3697 31.0901C12.8118 29.1313 13.7575 26.8397 15.3152 24.9689C15.4932 24.7546 15.6983 24.5348 15.972 24.4712C16.3886 24.3746 16.81 24.6918 16.9799 25.0788C17.1499 25.4659 17.1332 25.9024 17.1276 26.3239C17.1044 28.183 17.3686 30.075 18.165 31.7605C19.4044 34.3826 21.9597 36.3633 24.8407 36.9356C25.278 37.0228 25.784 37.0628 26.1215 36.7755C26.7568 36.2361 26.2213 35.2407 25.7393 34.5647C23.879 31.9583 23.1879 28.5739 23.8798 25.4627C24.0969 24.4877 24.4401 23.4883 24.6595 22.4991L24.6603 22.4999Z" fill="#84C441"/>
</g>
<defs>
<clipPath id="clip0_4499_8250">
<rect width="106" height="37" fill="white"/>
</clipPath>
</defs>
</svg>
